<?xml version="1.0" encoding="UTF-8"?>
<!DOCTYPE svg PUBLIC "-//W3C//DTD SVG 1.1//EN" "http://www.w3.org/Graphics/SVG/1.1/DTD/svg11.dtd">
<!-- Creator: CorelDRAW X7 -->
<svg xmlns="http://www.w3.org/2000/svg" xml:space="preserve" width="60px" height="41px" version="1.1" style="shape-rendering:geometricPrecision; text-rendering:geometricPrecision; image-rendering:optimizeQuality; fill-rule:evenodd; clip-rule:evenodd"
viewBox="0 0 60 41"
 xmlns:xlink="http://www.w3.org/1999/xlink">
 <defs>
  <style type="text/css">
   <![CDATA[
    .fil0 {fill:none}
    .fil1 {fill:url(#id0);fill-rule:nonzero}
   ]]>
  </style>
  <linearGradient id="id0" gradientUnits="userSpaceOnUse" x1="47.2642" y1="3.19134" x2="13.7634" y2="37.8071">
   <stop offset="0" style="stop-opacity:1; stop-color:#00A0E3"/>
   <stop offset="1" style="stop-opacity:1; stop-color:#E5097F"/>
  </linearGradient>
 </defs>
 <g id="Layer_x0020_1">
  <metadata id="CorelCorpID_0Corel-Layer"/>
  <polyline class="fil0" points="44,22 44,7 16,7 16,26 44,26 51,33 10,33 14,28 "/>
  <path class="fil1" d="M46 24l0 -19 -32 0 0 21 34 0c0,0 1,1 1,1l0 0 10 9c1,1 1,2 0,3 0,1 -1,1 -2,1l-53 0c-2,0 -2,-1 -2,-2 0,-1 0,-1 0,-2l0 0 6 -6 3 3 -3 3 44 0 -5 -5 -35 0c-1,0 -2,-1 -2,-2l0 -26c0,0 0,0 0,0 0,-1 1,-2 2,-2l34 0 2 0c1,0 2,1 2,2l0 21 -4 0z"/>
 </g>
</svg>
